<?xml version="1.0" encoding="utf-8"?>
<!-- Generator: Adobe Illustrator 22.1.0, SVG Export Plug-In . SVG Version: 6.00 Build 0)  -->
<svg version="1.1" id="Capa_1" xmlns="http://www.w3.org/2000/svg" xmlns:xlink="http://www.w3.org/1999/xlink" x="0px" y="0px"
	 viewBox="0 0 665 242" style="enable-background:new 0 0 665 242;" xml:space="preserve">
<style type="text/css">
	.st0{fill:#CECECE;}
</style>
<g>
	<g>
		<rect id="XMLID_193_" x="248.9" y="8.1" class="st0" width="1.8" height="225.8"/>
		<g>
			<g>
				<path class="st0" d="M318.2,76.5c-0.6-3.9-4.3-6.9-8.7-6.9c-7.8,0-10.8,6.7-10.8,13.6c0,6.6,2.9,13.3,10.8,13.3
					c5.3,0,8.3-3.7,9-8.9h8.4c-0.9,9.9-7.7,16.2-17.4,16.2c-12.3,0-19.5-9.2-19.5-20.6c0-11.8,7.2-20.9,19.5-20.9
					c8.7,0,16,5.1,17.1,14.3H318.2z"/>
				<path class="st0" d="M346.5,73.3c9,0,14.9,6,14.9,15.1c0,9.1-5.8,15.1-14.9,15.1c-9,0-14.8-6-14.8-15.1
					C331.7,79.3,337.6,73.3,346.5,73.3z M346.5,97.6c5.4,0,7-4.6,7-9.2c0-4.6-1.6-9.2-7-9.2c-5.3,0-6.9,4.6-6.9,9.2
					C339.6,93,341.2,97.6,346.5,97.6z"/>
				<path class="st0" d="M394.7,100.9c0,4.7-1.7,12.7-14.9,12.7c-5.7,0-12.3-2.7-12.7-9.2h7.8c0.7,2.9,3.1,3.9,5.9,3.9
					c4.4,0,6.4-3,6.3-7.1v-3.8h-0.1c-1.7,3-5.2,4.4-8.6,4.4c-8.6,0-12.3-6.5-12.3-14.4c0-7.4,4.3-14.2,12.3-14.2
					c3.8,0,6.7,1.3,8.5,4.6h0.1v-3.8h7.5V100.9z M387.2,88.1c0-4.7-1.6-8.8-6.7-8.8c-4.4,0-6.4,3.9-6.4,8.2c0,4.1,1.6,8.6,6.4,8.6
					C384.9,96,387.2,92.2,387.2,88.1z"/>
				<path class="st0" d="M401.5,74.1h7.5v4h0.2c2-3.2,5.4-4.8,8.8-4.8c8.4,0,10.5,4.7,10.5,11.8v17.6h-7.9V86.6c0-4.7-1.4-7-5-7
					c-4.3,0-6.1,2.4-6.1,8.2v15h-7.9V74.1z"/>
				<path class="st0" d="M443.1,69.6h-7.9v-6.5h7.9V69.6z M435.2,74.1h7.9v28.7h-7.9V74.1z"/>
				<path class="st0" d="M459.9,74.1h5.8v5.3h-5.8v14.2c0,2.7,0.7,3.3,3.3,3.3c0.8,0,1.6-0.1,2.4-0.2v6.2c-1.3,0.2-3.1,0.3-4.6,0.3
					c-4.8,0-9-1.1-9-6.8V79.4h-4.8v-5.3h4.8v-8.6h7.9V74.1z"/>
				<path class="st0" d="M478.1,69.6h-7.9v-6.5h7.9V69.6z M470.2,74.1h7.9v28.7h-7.9V74.1z"/>
				<path class="st0" d="M500.7,102.8h-8.8l-9.8-28.7h8.3l6,19.6h0.1l6-19.6h7.8L500.7,102.8z"/>
				<path class="st0" d="M520.7,90.3c0.2,5,2.7,7.3,7,7.3c3.2,0,5.7-1.9,6.2-3.7h6.9c-2.2,6.8-6.9,9.7-13.4,9.7
					c-9,0-14.6-6.2-14.6-15.1c0-8.6,5.9-15.1,14.6-15.1c9.8,0,14.5,8.2,13.9,17H520.7z M533.6,85.3c-0.7-4-2.4-6.1-6.3-6.1
					c-5,0-6.4,3.9-6.5,6.1H533.6z"/>
				<path class="st0" d="M291.9,125.7h13.7c11.9,0.3,18.2,6.8,18.2,19.8s-6.3,19.5-18.2,19.8h-13.7V125.7z M295.7,162.1h8
					c11.4,0.1,16.3-4.8,16.3-16.6s-4.9-16.6-16.3-16.6h-8V162.1z"/>
				<path class="st0" d="M329.9,125.7h3.5v5.6h-3.5V125.7z M329.9,136.7h3.5v28.6h-3.5V136.7z"/>
				<path class="st0" d="M364.9,163c-0.1,8.5-3.3,13.8-12.7,13.8c-5.7,0-11.4-2.6-11.9-8.7h3.5c0.8,4.2,4.5,5.7,8.4,5.7
					c6.4,0,9.2-3.8,9.2-10.8v-3.9h-0.1c-1.6,3.5-5,5.9-9.1,5.9c-9.2,0-12.9-6.5-12.9-14.7c0-7.9,4.7-14.4,12.9-14.4
					c4.2,0,7.7,2.6,9.1,5.8h0.1v-4.9h3.5V163z M361.4,150.7c0-5.6-2.6-11.9-9.2-11.9c-6.7,0-9.4,5.9-9.4,11.9c0,5.8,3,11.4,9.4,11.4
					C358.2,162,361.4,156.5,361.4,150.7z"/>
				<path class="st0" d="M372.1,125.7h3.5v5.6h-3.5V125.7z M372.1,136.7h3.5v28.6h-3.5V136.7z"/>
				<path class="st0" d="M388.4,136.7h5.8v2.9h-5.8v19.3c0,2.3,0.3,3.6,2.8,3.8c1,0,2-0.1,3-0.2v3c-1.1,0-2.1,0.1-3.1,0.1
					c-4.7,0-6.3-1.6-6.2-6.4v-19.6h-5v-2.9h5v-8.6h3.5V136.7z"/>
				<path class="st0" d="M399.5,145.4c0.3-6.7,5-9.6,11.6-9.6c5,0,10.5,1.6,10.5,9.2v15.2c0,1.3,0.7,2.1,2.1,2.1
					c0.4,0,0.8-0.1,1.1-0.2v2.9c-0.8,0.2-1.3,0.2-2.3,0.2c-3.6,0-4.1-2-4.1-5h-0.1c-2.4,3.7-4.9,5.8-10.4,5.8
					c-5.3,0-9.6-2.6-9.6-8.4c0-8,7.8-8.3,15.4-9.2c2.9-0.3,4.5-0.7,4.5-3.9c0-4.7-3.4-5.9-7.5-5.9c-4.3,0-7.5,2-7.7,6.7H399.5z
					 M418.2,149.7h-0.1c-0.4,0.8-2,1.1-2.9,1.3c-5.9,1.1-13.3,1-13.3,6.6c0,3.5,3.1,5.7,6.4,5.7c5.3,0,10-3.4,10-9V149.7z"/>
				<path class="st0" d="M429.3,125.7h3.5v39.6h-3.5V125.7z"/>
				<path class="st0" d="M458.5,152.3c-0.2,8.2,5.7,10.7,12.9,10.7c4.2,0,10.5-2.3,10.5-8c0-4.5-4.5-6.3-8.2-7.2l-8.8-2.2
					c-4.7-1.2-8.9-3.4-8.9-9.5c0-3.9,2.5-11.2,13.6-11.2c7.8,0,14.7,4.2,14.6,12.3h-3.8c-0.2-6-5.2-9.1-10.8-9.1
					c-5.2,0-9.9,2-9.9,7.9c0,3.7,2.8,5.3,6,6l9.7,2.4c5.6,1.5,10.3,3.9,10.3,10.4c0,2.7-1.1,11.3-15.1,11.3
					c-9.4,0-16.3-4.2-15.8-13.9H458.5z"/>
				<path class="st0" d="M493.6,151.9c0.1,5.1,2.7,11.3,9.4,11.3c5.1,0,7.9-3,9-7.3h3.5c-1.5,6.5-5.3,10.3-12.5,10.3
					c-9.1,0-12.9-7-12.9-15.1c0-7.5,3.8-15.1,12.9-15.1c9.2,0,12.9,8,12.6,16.1H493.6z M512.1,149c-0.2-5.3-3.4-10.2-9.1-10.2
					c-5.7,0-8.9,5-9.4,10.2H512.1z"/>
				<path class="st0" d="M520.9,136.7h3.2v6.7h0.1c1.8-4.6,5.7-7.3,10.8-7.1v3.5c-6.3-0.3-10.7,4.3-10.7,10.3v15.3h-3.5V136.7z"/>
				<path class="st0" d="M535.7,136.7h3.9l9,25.1h0.1l8.9-25.1h3.6l-10.7,28.6h-3.7L535.7,136.7z"/>
				<path class="st0" d="M565.2,125.7h3.5v5.6h-3.5V125.7z M565.2,136.7h3.5v28.6h-3.5V136.7z"/>
				<path class="st0" d="M596.2,145.7c-0.9-4.3-3.6-6.9-8.1-6.9c-6.7,0-10,6.1-10,12.2c0,6.1,3.3,12.2,10,12.2
					c4.3,0,7.9-3.4,8.3-8.2h3.5c-0.9,6.9-5.4,11.1-11.8,11.1c-8.8,0-13.5-6.9-13.5-15.1c0-8.2,4.8-15.1,13.5-15.1
					c6.1,0,10.8,3.3,11.6,9.8H596.2z"/>
				<path class="st0" d="M607.4,151.9c0.1,5.1,2.7,11.3,9.4,11.3c5.1,0,7.9-3,9-7.3h3.5c-1.5,6.5-5.3,10.3-12.5,10.3
					c-9.1,0-12.9-7-12.9-15.1c0-7.5,3.8-15.1,12.9-15.1c9.2,0,12.9,8,12.6,16.1H607.4z M625.9,149c-0.2-5.3-3.4-10.2-9.1-10.2
					c-5.7,0-8.9,5-9.4,10.2H625.9z"/>
				<path class="st0" d="M651.9,145.1c-0.2-4.3-3.5-6.3-7.5-6.3c-3.1,0-6.8,1.2-6.8,4.9c0,3.1,3.6,4.2,5.9,4.8l4.7,1.1
					c4,0.6,8.2,2.9,8.2,7.9c0,6.2-6.2,8.6-11.5,8.6c-6.7,0-11.2-3.1-11.8-10.1h3.5c0.3,4.7,3.8,7.2,8.4,7.2c3.3,0,7.8-1.4,7.8-5.4
					c0-3.3-3.1-4.4-6.3-5.2l-4.5-1c-4.5-1.2-8-2.8-8-7.7c0-5.8,5.7-8,10.8-8c5.7,0,10.3,3,10.5,9.2H651.9z"/>
			</g>
		</g>
		<g>
			<g id="XMLID_170_">
				<g id="XMLID_171_">
					<g id="XMLID_172_">
						<path id="XMLID_192_" class="st0" d="M173.6,129.3c-2.3,0-4,0.8-5.2,2.4c-1.2,1.6-1.8,3.9-1.8,6.8c0,3,0.6,5.2,1.8,6.9
							c1.2,1.6,3,2.4,5.2,2.4c2.3,0,4-0.8,5.2-2.4c1.2-1.6,1.8-3.9,1.8-6.9c0-3-0.6-5.2-1.8-6.8
							C177.6,130.1,175.9,129.3,173.6,129.3z"/>
						<path id="XMLID_191_" class="st0" d="M140.2,129.8c-2.8,0-4.8,1.3-5.8,4c-0.5,1.4-0.8,3.2-0.8,5.4c0,3.4,0.9,5.9,2.8,7.2
							c1.1,0.8,2.4,1.2,3.9,1.2c2.2,0,3.8-0.8,5-2.5c1.1-1.7,1.7-3.9,1.7-6.6c0-2.3-0.5-4.3-1.6-6.1
							C144.3,130.7,142.6,129.8,140.2,129.8z"/>
						<path id="XMLID_190_" class="st0" d="M136.6,94.7c-1.2-1.1-2.8-1.6-4.6-1.6c-2,0-3.5,0.6-4.6,1.7c-1.1,1.1-1.8,2.7-2.1,4.6
							h13.3C138.5,97.3,137.9,95.7,136.6,94.7z"/>
						<g id="XMLID_173_">
							<path id="XMLID_178_" class="st0" d="M7.8,20.7v200.5h200.5V20.7H7.8z M98.2,87.7h4.1v-8.3h7.7v8.3h4.8v5.5h-4.8v15.6
								c0,1.2,0.2,2,0.5,2.3c0.3,0.3,1.2,0.4,2.8,0.4c0.2,0,0.5,0,0.7,0c0.3,0,0.5,0,0.8,0v5.8l-3.7,0.1c-3.7,0.1-6.2-0.5-7.5-1.9
								c-0.9-0.9-1.3-2.3-1.3-4.1V93.3h-4.1V87.7z M64.6,153.3H59l-0.8-5c-1.6,1.9-3.1,3.2-4.3,4c-2.2,1.4-4.9,2-8.1,2
								c-5.3,0-9.6-1.8-13-5.5c-3.5-3.7-5.3-8.7-5.3-15.1c0-6.5,1.8-11.7,5.3-15.6c3.6-3.9,8.3-5.9,14.1-5.9c1.8,0,3.4,0.2,4.9,0.5
								V77.1h8.3V117c2.5,2.4,4,5.3,4.4,8.8h-8.2c-0.6-2.7-2.2-4.6-4.6-5.7c-1.4-0.6-2.9-0.9-4.6-0.9c-3.2,0-5.9,1.2-7.9,3.6
								c-2.1,2.4-3.1,6.1-3.1,11c0,4.9,1.1,8.4,3.4,10.4c2.2,2,4.8,3.1,7.7,3.1c2.8,0,5.1-0.8,6.9-2.4c1.8-1.6,2.9-3.7,3.3-6.3h-9.3
								v-6.7h16.7V153.3z M68.4,87.5h7.5v4.3c1-1.5,1.9-2.6,2.8-3.3c1.6-1.2,3.6-1.8,6-1.8c3,0,5.5,0.8,7.5,2.4
								c1.9,1.6,2.9,4.3,2.9,8v19.9h-7.9v-18c0-1.6-0.2-2.8-0.6-3.6c-0.8-1.5-2.2-2.3-4.3-2.3c-2.6,0-4.4,1.1-5.4,3.3
								c-0.5,1.2-0.8,2.7-0.8,4.5v16h-7.7V87.5z M90.1,131c-0.5-0.1-0.9-0.1-1.3-0.1c-0.4,0-0.7,0-0.9,0c-3.1,0-5.2,1-6.3,3
								c-0.6,1.1-0.9,2.9-0.9,5.3v14.1h-7.8v-29.6h7.4v5.2c1.2-2,2.2-3.3,3.1-4c1.4-1.2,3.3-1.8,5.6-1.8c0.1,0,0.3,0,0.4,0
								c0.1,0,0.3,0,0.7,0V131z M121.1,153.3h-7.5v-4.2c-0.1,0.1-0.3,0.4-0.5,0.8c-0.3,0.5-0.6,0.9-1,1.2c-1.2,1.1-2.4,1.8-3.5,2.2
								c-1.1,0.4-2.4,0.6-4,0.6c-4.4,0-7.3-1.6-8.8-4.7c-0.8-1.7-1.3-4.3-1.3-7.7v-17.8h7.9v17.8c0,1.7,0.2,2.9,0.6,3.8
								c0.7,1.5,2.1,2.3,4.1,2.3c2.6,0,4.4-1.1,5.4-3.2c0.5-1.2,0.8-2.7,0.8-4.6v-16.1h7.8V153.3z M117.4,102.6
								c0-5.1,1.4-9.1,4.1-11.8c2.7-2.7,6.2-4.1,10.6-4.1c2.6,0,4.9,0.5,7,1.4c2.1,0.9,3.8,2.4,5.1,4.4c1.2,1.8,2,3.8,2.4,6.1
								c0.2,1.4,0.3,3.3,0.3,5.9h-21.5c0.1,3,1.2,5,3.1,6.2c1.2,0.7,2.6,1.1,4.3,1.1c1.8,0,3.2-0.5,4.3-1.4c0.6-0.5,1.1-1.2,1.6-2
								h7.9c-0.2,1.8-1.2,3.5-2.9,5.3c-2.6,2.9-6.4,4.3-11.1,4.3c-3.9,0-7.4-1.2-10.4-3.6C118.9,112,117.4,108,117.4,102.6z
								 M151.3,150c-2.4,2.7-5.4,4.1-9.1,4.1c-2.4,0-4.3-0.6-5.9-1.8c-0.9-0.7-1.7-1.6-2.5-2.8v15.4h-7.7v-41.2h7.4v4.4
								c0.8-1.3,1.7-2.3,2.7-3c1.7-1.3,3.8-2,6.2-2c3.5,0,6.4,1.3,8.8,3.8c2.4,2.6,3.6,6.3,3.6,11.2
								C154.9,143.3,153.7,147.3,151.3,150z M158.3,117.1h-7.8V87.5h7.4v5.2c1.2-2,2.2-3.3,3.1-4c1.4-1.2,3.3-1.8,5.6-1.8
								c0.1,0,0.3,0,0.4,0c0.1,0,0.3,0,0.7,0v7.9c-0.5-0.1-0.9-0.1-1.3-0.1c-0.4,0-0.7,0-0.9,0c-3.1,0-5.2,1-6.3,3
								c-0.6,1.1-0.9,2.9-0.9,5.3V117.1z M185,149.7c-2.5,3.1-6.3,4.6-11.4,4.6c-5.1,0-8.9-1.5-11.4-4.6c-2.5-3.1-3.7-6.8-3.7-11.1
								c0-4.3,1.2-8,3.7-11.1c2.5-3.1,6.3-4.7,11.4-4.7c5.1,0,8.9,1.6,11.4,4.7s3.7,6.8,3.7,11.1C188.7,142.9,187.5,146.6,185,149.7
								z M201.2,152.6c-1.1,1.1-2.5,1.7-4.1,1.7c-1.6,0-3-0.6-4.2-1.7c-1.1-1.1-1.7-2.5-1.7-4.2c0-1.7,0.6-3.1,1.8-4.3
								c1.1-1.1,2.5-1.6,4-1.6c1.6,0,3,0.6,4.1,1.7c1.1,1.1,1.7,2.5,1.7,4.1C202.9,150.1,202.3,151.5,201.2,152.6z"/>
							<path id="XMLID_177_" class="st0" d="M197.6,146.5c-0.2-0.1-0.6-0.1-1-0.1h-0.4v1.9h0.7c0.4,0,0.7-0.1,0.9-0.2
								c0.2-0.2,0.3-0.4,0.3-0.8C198.1,146.9,197.9,146.6,197.6,146.5z"/>
							<path id="XMLID_174_" class="st0" d="M197.1,143.6c-1.3,0-2.5,0.5-3.4,1.5c-0.9,1-1.4,2.1-1.4,3.4c0,1.4,0.5,2.5,1.4,3.5
								c0.9,0.9,2.1,1.4,3.4,1.4c1.3,0,2.5-0.5,3.4-1.4c0.9-1,1.4-2.1,1.4-3.4c0-1.3-0.5-2.4-1.4-3.4
								C199.5,144.1,198.4,143.6,197.1,143.6z M198.2,151.7c-0.1-0.2-0.1-0.5-0.1-0.9c0-0.4-0.1-0.7-0.1-0.8
								c-0.1-0.2-0.2-0.4-0.5-0.5c-0.1-0.1-0.3-0.1-0.6-0.1l-0.4,0h-0.4v2.3h-1.7v-6.5c0.4,0,1,0,1.8,0c0.8,0,1.2,0,1.3,0
								c0.5,0,0.9,0.1,1.3,0.3c0.6,0.3,0.9,0.8,0.9,1.5c0,0.5-0.2,0.9-0.5,1.2c-0.3,0.2-0.7,0.4-1.1,0.4c0.4,0.1,0.7,0.2,0.9,0.4
								c0.4,0.3,0.6,0.8,0.6,1.5v0.6c0,0.1,0,0.1,0,0.2c0,0.1,0,0.1,0,0.2l0.1,0.2H198.2z"/>
						</g>
					</g>
				</g>
			</g>
		</g>
	</g>
</g>
</svg>
