<?xml version="1.0" encoding="utf-8"?>
<!-- Generator: Adobe Illustrator 22.1.0, SVG Export Plug-In . SVG Version: 6.00 Build 0)  -->
<svg version="1.1" id="Capa_1" xmlns="http://www.w3.org/2000/svg" xmlns:xlink="http://www.w3.org/1999/xlink" x="0px" y="0px"
	 viewBox="0 0 291.1 274.5" style="enable-background:new 0 0 291.1 274.5;" xml:space="preserve">
<g>
	<path d="M170.5,0c6.2,0,9.5,3.5,10,10.4v172.8c0,25.4-8.9,47-26.6,64.7c-17.8,17.8-39.2,26.6-64.4,26.6c-21.7,0-40.8-6.6-57.2-19.8
		c-16.4-13.2-27.1-30.4-32-51.6c-1.5-6.7,2-10,10.4-10c6.2,0,9.5,3.3,10,10c4.7,15,13.3,27.4,25.9,37c12.6,9.6,26.9,14.4,42.9,14.4
		c19.7,0,36.5-7,50.3-20.9c13.8-13.9,20.7-30.6,20.7-50.1c0-19.7-6.9-36.5-20.7-50.3c-13.8-13.8-30.6-20.7-50.3-20.7
		c-16,0-30.3,4.8-42.7,14.4c-12.5,9.6-20.9,22-25.3,37c0.5,0-0.1,1.7-1.9,5c-1.7,3.3-4.7,5-8.9,5c-8.1,0-11.6-3.3-10.4-10
		c4.2-20.7,14.7-37.8,31.4-51.2c16.8-13.4,36-20.2,57.7-20.2c21.5,0,40.4,6.7,57,20l3.7,3c3,2.5,5.2,3.7,6.7,3.7
		c2.2,0,3.5-2.2,3.7-6.7V10.4C161,3.5,164.3,0,170.5,0z M146.5,112.5c1,1,2.2,2,3.7,3L146.5,112.5z"/>
	<path d="M229.7,123.9c13.6-16.8,30.6-27.2,51.1-31.4c3-0.7,5.4,0,7.4,2.2c2,2.2,3,4.9,3,8.1c0,5.7-3.5,9.1-10.4,10.4
		c-14.8,4.4-27,12.7-36.6,24.8c-9.6,12.8-14.4,27.1-14.4,42.9v86.2c-0.5,4.9-3.8,7.4-10,7.4c-6.4,0-9.9-2.5-10.4-7.4v-85.5
		C209.4,159.9,216.1,140.7,229.7,123.9z"/>
</g>
</svg>
