<?xml version="1.0" encoding="utf-8"?>
<!-- Generator: Adobe Illustrator 15.0.0, SVG Export Plug-In . SVG Version: 6.00 Build 0)  -->
<!DOCTYPE svg PUBLIC "-//W3C//DTD SVG 1.1//EN" "http://www.w3.org/Graphics/SVG/1.1/DTD/svg11.dtd">
<svg version="1.1" id="Capa_1" xmlns="http://www.w3.org/2000/svg" xmlns:xlink="http://www.w3.org/1999/xlink" x="0px" y="0px"
	 width="291.111px" height="274.503px" viewBox="0 0 291.111 274.503" enable-background="new 0 0 291.111 274.503"
	 xml:space="preserve">
<g>
	<path fill="#FFFFFF" d="M170.51,0c6.162,0,9.492,3.457,9.989,10.358v172.768c0,25.405-8.879,46.983-26.637,64.742
		c-17.758,17.757-39.215,26.636-64.372,26.636c-21.706,0-40.758-6.595-57.158-19.792c-16.405-13.191-27.07-30.394-32-51.608
		c-1.48-6.659,1.971-9.989,10.358-9.989c6.162,0,9.492,3.33,9.989,9.989c4.682,15.047,13.318,27.376,25.896,36.995
		c12.579,9.619,26.879,14.429,42.915,14.429c19.729,0,36.498-6.966,50.313-20.903c13.81-13.931,20.717-30.642,20.717-50.128
		c0-19.729-6.908-36.498-20.717-50.313c-13.815-13.81-30.585-20.717-50.313-20.717c-16.035,0-30.278,4.81-42.729,14.428
		c-12.457,9.619-20.902,21.955-25.342,36.995c0.492,0-0.127,1.665-1.85,4.995c-1.729,3.33-4.688,4.994-8.879,4.994
		c-8.139,0-11.596-3.33-10.358-9.989c4.19-20.717,14.671-37.793,31.446-51.238C48.548,99.21,67.785,92.488,89.491,92.488
		c21.457,0,40.446,6.659,56.972,19.977l3.7,2.96c2.959,2.468,5.179,3.699,6.659,3.699c2.22,0,3.451-2.22,3.7-6.659V10.358
		C161.013,3.457,164.343,0,170.51,0z M146.463,112.465c0.983,0.989,2.22,1.977,3.7,2.96L146.463,112.465z"/>
	<path fill="#FFFFFF" d="M229.699,123.934c13.562-16.769,30.579-27.25,51.054-31.446c2.959-0.74,5.422,0,7.398,2.22
		c1.972,2.22,2.96,4.937,2.96,8.139c0,5.677-3.457,9.127-10.358,10.359c-14.798,4.439-27.007,12.706-36.625,24.787
		c-9.619,12.827-14.429,27.134-14.429,42.915v86.199c-0.497,4.937-3.826,7.398-9.988,7.398c-6.417,0-9.867-2.462-10.359-7.398
		v-85.459C209.351,159.946,216.132,140.708,229.699,123.934z"/>
</g>
</svg>
